<svg width="486" height="219" viewBox="0 0 486 219" fill="none" xmlns="http://www.w3.org/2000/svg">
<path d="M0.600098 6.09985V130.7H125.2V6.09985H0.600098ZM121.7 127.2H4.2001V9.69985H121.6V127.2H121.7Z" fill="black"/>
<path d="M121.6 9.69995H4.2002V127.1H121.6V9.69995Z" fill="#FFF000"/>
<path fill-rule="evenodd" clip-rule="evenodd" d="M62.6999 83.4L100.2 120.8L114.9 106.1L77.3999 68.6L84.6999 61.3V46.7L89.8999 41.5V53.6L94.9999 58.6L113.3 40.3L118.2 45.2C118.2 42.1 117.3 31.2 108.6 22.7C98.7999 13.2 89.0999 18.7 85.6999 22.1L67.9999 39.9L72.3999 44.3L62.6999 54L52.9999 44.3L57.3999 39.9L39.6999 22.2C36.2999 18.8 26.5999 13.3 16.7999 22.8C8.0999 31.3 7.3999 42.1 7.3999 45.3L12.0999 40.4L30.3999 58.7L35.4999 53.6V41.6L40.6999 46.8V61.4L47.9999 68.7L10.7999 105.8L25.4999 120.4L62.6999 83.4Z" fill="black"/>
<path fill-rule="evenodd" clip-rule="evenodd" d="M159.4 16.3H160.7C165 16.3 169.9 17.1 169.9 22.7C169.9 28.2 165 29.1 160.7 29.1H159.4V16.3ZM172.5 36.3C179.7 35 183.7 28.9 183.7 21.9C183.7 11 176.1 6.19995 166 6.19995H146.2V57.2H159.5V37.6H159.6L172.1 57.2H188.6L172.5 36.3Z" fill="black"/>
<path fill-rule="evenodd" clip-rule="evenodd" d="M210 31.9999C215 31.9999 217.9 35.5999 217.9 39.7999C217.9 44.1999 215 47.5999 210 47.5999C205 47.5999 202.1 44.1999 202.1 39.7999C202.1 35.5999 205 31.9999 210 31.9999ZM229.8 22.4999H217.5V25.8999C214.9 22.8999 210.7 21.3999 206.7 21.3999C196.4 21.3999 189.3 29.8999 189.3 39.8999C189.3 49.7999 196.5 58.3999 206.8 58.3999C210.9 58.3999 215.1 56.7999 217.3 53.3999H217.4V57.2999H229.7V22.4999H229.8Z" fill="black"/>
<path fill-rule="evenodd" clip-rule="evenodd" d="M250.3 57.2H238V22.5H250.3V57.2ZM251 9.09995C251 12.9 247.9 16 244.1 16C240.3 16 237.2 12.9 237.2 9.09995C237.2 5.29995 240.3 2.19995 244.1 2.19995C247.9 2.19995 251 5.39995 251 9.09995Z" fill="black"/>
<path fill-rule="evenodd" clip-rule="evenodd" d="M271.9 57.1999H259.6V32.5999H255.3V22.4999H259.6V18.0999C259.6 13.2999 259.7 9.7999 263.1 5.8999C266.1 2.2999 270.5 0.399902 275.2 0.399902C277.1 0.399902 278.8 0.699899 280.5 1.5999V12.1999C279.1 11.5999 277.8 11.0999 276.2 11.0999C273 11.0999 271.9 12.9999 271.9 16.8999V22.4999H280.5V32.5999H271.9V57.1999Z" fill="black"/>
<path fill-rule="evenodd" clip-rule="evenodd" d="M298.1 57.1999H285.8V32.5999H281.5V22.4999H285.8V18.0999C285.8 13.2999 285.9 9.7999 289.3 5.8999C292.3 2.2999 296.7 0.399902 301.4 0.399902C303.3 0.399902 305 0.699899 306.7 1.5999V12.1999C305.3 11.5999 304 11.0999 302.4 11.0999C299.2 11.0999 298.1 12.9999 298.1 16.8999V22.4999H306.7V32.5999H298.1V57.1999Z" fill="black"/>
<path fill-rule="evenodd" clip-rule="evenodd" d="M320.8 34.7998C321.5 31.1998 324.5 29.2998 328.1 29.2998C331.4 29.2998 334.5 31.4998 335.1 34.7998H320.8ZM346.5 40.5998C346.5 28.7998 339.5 21.2998 327.5 21.2998C316.2 21.2998 308.3 28.2998 308.3 39.7998C308.3 51.7998 316.9 58.2998 328.4 58.2998C336.3 58.2998 344.1 54.5998 346 46.3998H334.2C332.8 48.6998 331 49.5998 328.3 49.5998C323.2 49.5998 320.6 46.8998 320.6 41.8998H346.5V40.5998Z" fill="black"/>
<path fill-rule="evenodd" clip-rule="evenodd" d="M364.4 57.2H352.1V22.5H364.4V57.2ZM365.2 9.09995C365.2 12.9 362.1 16 358.3 16C354.5 16 351.4 12.9 351.4 9.09995C351.4 5.29995 354.5 2.19995 358.3 2.19995C362.1 2.19995 365.2 5.39995 365.2 9.09995Z" fill="black"/>
<path fill-rule="evenodd" clip-rule="evenodd" d="M395.5 31.3998C393.6 30.3998 391 29.6998 388.9 29.6998C387.5 29.6998 385 30.2998 385 32.0998C385 34.4998 388.9 34.7998 390.5 35.0998C396.2 36.1998 400.6 38.9998 400.6 45.3998C400.6 54.4998 392.3 58.2998 384.2 58.2998C379.3 58.2998 374.4 56.8998 370.2 54.2998L374.7 45.6998C377.2 47.4998 381.4 49.1998 384.4 49.1998C386 49.1998 388.3 48.4998 388.3 46.5998C388.3 43.8998 384.4 43.7998 380.6 42.6998C376.8 41.5998 372.9 39.7998 372.9 33.5998C372.9 25.0998 380.6 21.2998 388.2 21.2998C392.1 21.2998 396 21.8998 399.6 23.4998L395.5 31.3998Z" fill="black"/>
<path fill-rule="evenodd" clip-rule="evenodd" d="M417.2 34.7998C417.9 31.1998 420.9 29.2998 424.5 29.2998C427.8 29.2998 430.9 31.4998 431.5 34.7998H417.2ZM442.9 40.5998C442.9 28.7998 435.9 21.2998 423.9 21.2998C412.6 21.2998 404.7 28.2998 404.7 39.7998C404.7 51.7998 413.3 58.2998 424.8 58.2998C432.7 58.2998 440.5 54.5998 442.5 46.3998H430.7C429.3 48.6998 427.5 49.5998 424.8 49.5998C419.7 49.5998 417.1 46.8998 417.1 41.8998H443V40.5998H442.9Z" fill="black"/>
<path fill-rule="evenodd" clip-rule="evenodd" d="M460.8 26.8998H460.9C463.7 22.6998 467.2 21.2998 472 21.2998C481.3 21.2998 485.1 27.1998 485.1 35.6998V57.0998H472.8V40.1998C472.8 36.8998 473.3 31.0998 467.2 31.0998C462.2 31.0998 460.8 34.7998 460.8 39.0998V57.0998H448.5V22.4998H460.8V26.8998Z" fill="black"/>
<path fill-rule="evenodd" clip-rule="evenodd" d="M163.1 109.7H164.5C168.8 109.7 175.5 109.1 174.5 115.3C173.6 120.9 167 120.7 163.1 120.7H161.4L163.1 109.7ZM167 130.8C176.3 130.8 186 127.3 187.7 116.6C188.8 109.5 186.5 104.5 179.3 103.6V103.5C183.8 101.4 185.8 97.6999 186.6 93.0999C188.1 83.2999 182.6 79.7999 173.5 79.7999H154.5L146.4 130.9H167V130.8ZM166.3 89.8999H167.2C170.8 89.8999 174.9 90.1999 174.1 94.7999C173.4 99.0999 169.7 99.6999 166.1 99.6999H164.6L166.3 89.8999Z" fill="black"/>
<path fill-rule="evenodd" clip-rule="evenodd" d="M223.1 111.8H212.1L220.2 95.5999H220.3L223.1 111.8ZM225.1 122L227 130.9H241.2L230 79.7999H215.5L187.8 130.9H201.9L206.8 122H225.1Z" fill="black"/>
<path fill-rule="evenodd" clip-rule="evenodd" d="M253.3 79.7999H266.6L286 111H286.1L291.1 79.7999H304.3L296.2 130.8H283L263.6 99.4999H263.5L258.5 130.8H245.3L253.3 79.7999Z" fill="black"/>
<path fill-rule="evenodd" clip-rule="evenodd" d="M342.5 79.7999H358.9L334.8 104L352.7 130.8H335.5L321.8 108.7H321.7L318.2 130.8H304.9L313 79.7999H326.3L322.9 100.8H323.1L342.5 79.7999Z" fill="black"/>
<path d="M20.0002 175.5C21.7002 176.3 23.0002 177.6 24.0002 179.2C24.9002 180.8 25.4002 182.8 25.4002 185.1C25.4002 187.4 24.9002 189.3 24.0002 190.9C23.1002 192.5 21.7002 193.8 19.9002 194.6C18.1002 195.5 16.0002 195.9 13.5002 195.9H8.0002V208.6H0.700195V174.2H13.8002C16.2002 174.2 18.3002 174.6 20.0002 175.5ZM13.0002 190C14.6002 190 15.8002 189.6 16.6002 188.8C17.4002 188 17.8002 186.8 17.8002 185.2C17.8002 183.5 17.4002 182.4 16.6002 181.6C15.8002 180.9 14.6002 180.5 13.0002 180.5H8.0002V190H13.0002Z" fill="black"/>
<path d="M47.7 181.9H54.6V208.7H47.7V205.5C46.8 206.7 45.7 207.7 44.4 208.4C43.1 209.1 41.5 209.4 39.8 209.4C37.6 209.4 35.7 208.8 33.9 207.6C32.2 206.4 30.8 204.7 29.9 202.6C28.9 200.5 28.5 198 28.5 195.3C28.5 192.6 29 190.1 29.9 188C30.9 185.9 32.2 184.2 33.9 183C35.6 181.8 37.6 181.2 39.8 181.2C41.5 181.2 43 181.6 44.4 182.3C45.8 183 46.9 184 47.7 185.2V181.9ZM45 202.1C45.9 201.5 46.6 200.6 47.1 199.4C47.6 198.2 47.9 196.8 47.9 195.2C47.9 193.5 47.6 192.1 47.1 191C46.6 189.8 45.9 189 45 188.3C44.1 187.7 43 187.4 41.9 187.4C40.7 187.4 39.7 187.7 38.7 188.3C37.8 188.9 37.1 189.8 36.6 191C36.1 192.2 35.8 193.6 35.8 195.2C35.8 196.9 36.1 198.3 36.6 199.4C37.1 200.6 37.8 201.4 38.7 202.1C39.6 202.7 40.7 203 41.9 203C43 203 44.1 202.7 45 202.1Z" fill="black"/>
<path d="M68.5001 199.8L78.2001 181.9H87.0001V208.7H80.0001V190.8L70.3001 208.7H61.6001V181.9H68.5001V199.8ZM67.7001 176.2C66.2001 174.8 65.4001 172.8 65.3001 170.2H71.2001C71.2001 171.3 71.5001 172.1 72.0001 172.7C72.5001 173.2 73.3001 173.5 74.3001 173.5C76.2001 173.5 77.2001 172.4 77.3001 170.2H83.2001C83.1001 172.8 82.3001 174.8 80.8001 176.2C79.3001 177.6 77.1001 178.3 74.3001 178.3C71.4001 178.3 69.2001 177.6 67.7001 176.2Z" fill="black"/>
<path d="M126.5 202.4C125.3 204.5 123.6 206.1 121.4 207.3C119.2 208.5 116.7 209.1 113.8 209.2V218.8H106.8V209.2C103.9 209.1 101.4 208.5 99.2003 207.3C97.0003 206.1 95.3003 204.5 94.1003 202.4C92.9003 200.3 92.3003 197.9 92.3003 195.2C92.3003 192.5 92.9003 190.1 94.1003 188C95.3003 185.9 97.0003 184.3 99.2003 183.1C101.4 181.9 103.9 181.3 106.8 181.3V172.2H113.8V181.3C116.7 181.4 119.2 182 121.4 183.1C123.6 184.3 125.3 185.9 126.5 188C127.7 190.1 128.3 192.5 128.3 195.2C128.3 197.9 127.7 200.3 126.5 202.4ZM101.4 200.9C102.7 202.2 104.5 202.9 106.9 202.9V187.3C104.5 187.4 102.7 188.1 101.4 189.3C100.1 190.6 99.5003 192.5 99.5003 195C99.5003 197.7 100.1 199.6 101.4 200.9ZM113.5 203C115.9 202.9 117.8 202.3 119.1 201C120.4 199.7 121 197.8 121 195.3C121 192.8 120.4 190.9 119.1 189.6C117.8 188.3 116 187.6 113.5 187.6V203Z" fill="black"/>
<path d="M133.4 208C132.6 207.2 132.3 206.2 132.3 205C132.3 203.8 132.7 202.7 133.4 202C134.2 201.2 135.2 200.9 136.4 200.9C137.6 200.9 138.6 201.3 139.4 202C140.2 202.8 140.5 203.8 140.5 205C140.5 206.2 140.1 207.3 139.4 208C138.6 208.8 137.7 209.1 136.4 209.1C135.2 209.1 134.1 208.7 133.4 208Z" fill="black"/>
<path d="M156.5 174.2H184V180.6H173.9V208.6H166.6V180.6H156.5V174.2Z" fill="black"/>
<path d="M203.7 181.9H210.6V208.7H203.7V205.5C202.8 206.7 201.7 207.7 200.4 208.4C199.1 209.1 197.5 209.4 195.8 209.4C193.6 209.4 191.7 208.8 189.9 207.6C188.1 206.4 186.8 204.7 185.9 202.6C184.9 200.5 184.5 198 184.5 195.3C184.5 192.6 185 190.1 185.9 188C186.9 185.9 188.2 184.2 189.9 183C191.6 181.8 193.6 181.2 195.8 181.2C197.5 181.2 199 181.6 200.4 182.3C201.7 183 202.9 184 203.7 185.2V181.9ZM201 202.1C201.9 201.5 202.6 200.6 203.1 199.4C203.6 198.2 203.9 196.8 203.9 195.2C203.9 193.5 203.6 192.1 203.1 191C202.6 189.8 201.9 189 201 188.3C200.1 187.7 199 187.4 197.9 187.4C196.7 187.4 195.7 187.7 194.7 188.3C193.8 188.9 193.1 189.8 192.6 191C192.1 192.2 191.8 193.6 191.8 195.2C191.8 196.9 192.1 198.3 192.6 199.4C193.1 200.6 193.8 201.4 194.7 202.1C195.6 202.7 196.7 203 197.9 203C199 203 200.1 202.7 201 202.1Z" fill="black"/>
<path d="M231.2 194.5L242 208.6H233.7L224.5 196.7V208.6H217.6V181.8H224.5V193L233.3 181.8H241.5L231.2 194.5Z" fill="black"/>
<path d="M258 208.6V181.8H282V208.6H275.1V188H264.9V208.6H258Z" fill="black"/>
<path d="M309.6 182.9C311.3 184.1 312.7 185.8 313.6 187.9C314.6 190 315 192.5 315 195.2C315 197.9 314.5 200.4 313.6 202.5C312.6 204.6 311.3 206.3 309.6 207.5C307.9 208.7 305.9 209.3 303.7 209.3C302 209.3 300.5 209 299.1 208.3C297.8 207.6 296.6 206.7 295.8 205.4V218.7H288.9V181.8H295.8V185C296.7 183.8 297.8 182.8 299.1 182.1C300.4 181.4 302 181 303.7 181C305.9 181.1 307.9 181.7 309.6 182.9ZM304.9 202.1C305.8 201.5 306.5 200.6 307 199.4C307.5 198.2 307.8 196.8 307.8 195.2C307.8 193.5 307.5 192.1 307 191C306.5 189.8 305.8 189 304.9 188.3C304 187.7 302.9 187.4 301.7 187.4C300.5 187.4 299.5 187.7 298.5 188.3C297.6 188.9 296.8 189.8 296.3 191C295.8 192.2 295.5 193.6 295.5 195.2C295.5 196.9 295.8 198.3 296.3 199.4C296.8 200.6 297.5 201.4 298.5 202.1C299.4 202.7 300.5 203 301.7 203C302.9 203 304 202.7 304.9 202.1Z" fill="black"/>
<path d="M325.3 207.5C323.3 206.3 321.7 204.7 320.5 202.5C319.3 200.4 318.8 197.9 318.8 195.1C318.8 192.3 319.4 189.9 320.5 187.8C321.7 185.7 323.3 184 325.3 182.8C327.3 181.6 329.7 181 332.3 181C334.9 181 337.2 181.6 339.3 182.8C341.4 184 343 185.6 344.1 187.8C345.3 189.9 345.8 192.4 345.8 195.1C345.8 197.9 345.2 200.3 344.1 202.5C342.9 204.6 341.3 206.3 339.3 207.5C337.2 208.7 334.9 209.3 332.3 209.3C329.7 209.3 327.3 208.7 325.3 207.5ZM336.9 200.9C338 199.5 338.5 197.6 338.5 195.2C338.5 192.8 337.9 190.9 336.8 189.5C335.7 188.1 334.2 187.5 332.2 187.5C330.2 187.5 328.7 188.2 327.6 189.5C326.5 190.9 326 192.8 326 195.2C326 197.7 326.5 199.6 327.6 200.9C328.7 202.3 330.2 202.9 332.2 202.9C334.2 203 335.8 202.3 336.9 200.9Z" fill="black"/>
<path d="M355.8 207.6C353.8 206.5 352.2 204.8 351.1 202.7C350 200.6 349.4 198.1 349.4 195.3C349.4 192.6 349.9 190.2 351 188C352.1 185.8 353.7 184.1 355.7 182.9C357.7 181.7 360.1 181.1 362.8 181.1C364.7 181.1 366.4 181.4 367.9 182C369.4 182.6 370.8 183.5 371.9 184.6L368.3 189.6C366.9 188.2 365.1 187.5 363.1 187.5C361.1 187.5 359.5 188.2 358.3 189.6C357.2 191 356.6 192.9 356.6 195.4C356.6 197.9 357.2 199.8 358.3 201.1C359.4 202.4 361 203.1 363.1 203.1C365.1 203.1 366.8 202.5 368.3 201.2L371.8 206.2C370.6 207.3 369.3 208.1 367.7 208.7C366.2 209.3 364.5 209.5 362.7 209.5C360.2 209.3 357.9 208.7 355.8 207.6Z" fill="black"/>
<path d="M375.1 181.9H397.7V188H389.9V208.6H383V188H375.2V181.9H375.1Z" fill="black"/>
<path d="M403.5 177C402.7 176.2 402.4 175.3 402.4 174C402.4 172.7 402.8 171.8 403.5 171C404.3 170.2 405.2 169.9 406.5 169.9C407.7 169.9 408.7 170.3 409.4 171C410.1 171.8 410.5 172.7 410.5 174C410.5 175.3 410.1 176.2 409.4 177C408.7 177.8 407.7 178.1 406.5 178.1C405.2 178.1 404.2 177.7 403.5 177ZM409.8 208.6H402.9V181.8H409.8V208.6Z" fill="black"/>
<path d="M447.5 202.5V181.9H454.5V208.7H416.8V181.9H423.7V202.5H432.2V181.9H439.1V202.5H447.5Z" fill="black"/>
<path d="M485.2 197.7H467.1C467.3 199.7 468 201.2 469.1 202.1C470.2 203 471.8 203.5 473.9 203.5C475.3 203.5 476.7 203.3 477.9 202.9C479.1 202.5 480.2 201.9 481.1 201.1L484.1 205.9C482.8 207 481.2 207.9 479.4 208.5C477.6 209.1 475.7 209.4 473.6 209.4C470.7 209.4 468.2 208.8 466.1 207.7C464 206.6 462.4 205 461.3 202.9C460.2 200.8 459.7 198.3 459.7 195.5C459.7 192.7 460.2 190.2 461.3 188C462.4 185.8 463.9 184.2 465.9 183C467.9 181.8 470.1 181.2 472.7 181.2C475.2 181.2 477.4 181.8 479.3 182.9C481.2 184 482.6 185.7 483.7 187.8C484.7 189.9 485.2 192.4 485.2 195.3V197.7ZM467.2 192.9H478.3C478.1 190.9 477.6 189.4 476.6 188.4C475.7 187.4 474.4 186.9 472.8 186.9C469.5 187 467.7 189 467.2 192.9Z" fill="black"/>
</svg>
