<?xml version="1.0" encoding="utf-8"?>
<!-- Generator: Adobe Illustrator 23.0.5, SVG Export Plug-In . SVG Version: 6.00 Build 0)  -->
<svg version="1.1" id="Шар_1" xmlns="http://www.w3.org/2000/svg" xmlns:xlink="http://www.w3.org/1999/xlink" x="0px" y="0px"
	 viewBox="0 0 836.2 450.7" style="enable-background:new 0 0 836.2 450.7;" xml:space="preserve">
<style type="text/css">
	.st0{fill:#003B50;}
	.st1{fill:#C1DDB5;}
	.st2{fill:#EDEDED;}
	.st3{fill:#1A1A18;}
	.st4{fill:#FFFFFF;}
	.st5{fill:#4EA524;}
</style>
<rect y="2.8" class="st4" width="836.2" height="445"/>
<g>
	<g>
		<g>
			<path class="st5" d="M255.5,172.3V256h-11.4c-4.9-41.4-30.9-67.4-72.4-72.4v-11.4H255.5z M142.2,142.8v69.5H157
				c38.8,0,58.5,19.7,58.5,58.6v14.8H285V142.8H142.2z"/>
			<rect x="142.2" y="229.7" class="st3" width="55.8" height="55.9"/>
		</g>
	</g>
	<path class="st0" d="M341,211.6c-8,0-14.2-2.7-18.6-8.2c-4.4-5.5-6.6-12.9-6.6-22.2c0-10.2,2.4-18.1,7.2-23.7
		c2.2-2.6,5.2-4.9,9-6.8c4-1.9,8-3.4,12-4.4c4.2-1.1,9.4-2.1,15.5-3.1v9.4c-10,1.9-16.4,3.3-19,4.2c-7,2.4-11.6,6.1-13.7,11.2
		c-0.9,2.1-1.5,4.7-1.7,7.8c1.9-2.8,4.6-5,7.9-6.7c3.3-1.6,6.9-2.4,10.9-2.4c6,0,10.9,1.9,15,5.8c4,3.9,5.9,9,5.9,15.2
		c0,7.1-2.3,12.8-6.9,17.2C353.4,209.4,347.8,211.6,341,211.6z M341,202.6c4,0,7.2-1.3,9.7-4c2.6-2.7,3.9-6.1,3.9-10.2
		c0-3.9-1.2-7-3.7-9.5c-2.5-2.4-5.6-3.6-9.5-3.6c-3.1,0-6.1,0.9-9,2.6c-2.9,1.8-5.1,4-6.6,6.7c0.2,5.6,1.7,10,4.3,13.2
		S336.4,202.6,341,202.6z"/>
	<path class="st0" d="M371.2,187.2c0-7,2.2-12.7,6.6-17.3c4.5-4.6,10.2-7,17.1-7c4.8,0,8.8,1.3,12.1,3.8c6.5,4.6,9.8,11.6,9.8,20.9
		v2.6h-35.4c0.6,3.9,2.5,6.9,5.6,9.1c3.1,2.2,7,3.3,11.8,3.3c5.3,0,10.2-1.4,14.9-4.1v8.6c-4.3,3-9.9,4.5-17,4.5
		c-7.1,0-13.1-2.3-18.2-6.8C373.6,200.3,371.2,194.4,371.2,187.2z M381.5,182.5h25c-0.1-2.9-1.2-5.4-3.3-7.6
		c-2.1-2.3-5.1-3.4-8.8-3.4c-3.6,0-6.5,1.1-8.9,3.2C383.2,176.7,381.8,179.3,381.5,182.5z"/>
	<path class="st0" d="M449.9,162.9c6.5,0,11.9,2.4,16.1,7.1c4.2,4.6,6.3,10.4,6.3,17.3c0,6.8-2.1,12.6-6.3,17.2
		c-4.2,4.7-9.6,7.1-16.1,7.1c-7.1,0-12.6-2.5-16.5-7.5v25.1h-10.2v-65h10.2v6.3C437.3,165.4,442.8,162.9,449.9,162.9z M447.1,171.8
		c-3,0-5.6,0.8-8.1,2.3c-2.4,1.5-4.3,3.5-5.6,6v14.3c1.3,2.4,3.2,4.3,5.7,5.9c2.5,1.5,5.2,2.3,8,2.3c4.3,0,7.8-1.5,10.6-4.4
		c2.8-3,4.2-6.6,4.2-10.9c0-4.3-1.4-8-4.2-10.9C455,173.4,451.4,171.8,447.1,171.8z"/>
	<path class="st0" d="M478.8,187.2c0-7,2.2-12.7,6.6-17.3c4.5-4.6,10.2-7,17.1-7c4.8,0,8.8,1.3,12.1,3.8c6.5,4.6,9.8,11.6,9.8,20.9
		v2.6h-35.4c0.6,3.9,2.5,6.9,5.6,9.1c3.1,2.2,7,3.3,11.8,3.3c5.3,0,10.2-1.4,14.9-4.1v8.6c-4.3,3-9.9,4.5-17,4.5
		c-7.1,0-13.1-2.3-18.2-6.8C481.3,200.3,478.8,194.4,478.8,187.2z M489.2,182.5h25c-0.1-2.9-1.2-5.4-3.3-7.6
		c-2.1-2.3-5.1-3.4-8.8-3.4c-3.6,0-6.5,1.1-8.9,3.2C490.8,176.7,489.5,179.3,489.2,182.5z"/>
	<path class="st0" d="M541.1,210.3h-9.8v-46.2h10l15.8,19.2l15.9-19.2h10v46.2h-9.8V178L559,195h-4l-14-17V210.3z"/>
	<path class="st0" d="M614.2,211.6c-7.4,0-13.5-2.4-18.3-7.1c-4.8-4.7-7.2-10.5-7.2-17.3c0-6.8,2.4-12.5,7.2-17.2
		c4.8-4.7,10.9-7.1,18.3-7.1c7.3,0,13.3,2.4,18.2,7.1c4.8,4.7,7.2,10.4,7.2,17.2c0,6.8-2.4,12.6-7.2,17.3
		C627.5,209.2,621.5,211.6,614.2,211.6z M614.2,202.6c4.3,0,7.9-1.5,10.8-4.4c2.9-2.9,4.3-6.6,4.3-11c0-4.4-1.4-8-4.3-10.9
		c-2.9-2.9-6.6-4.4-10.8-4.4c-4.3,0-8,1.5-10.9,4.4c-2.9,2.9-4.3,6.5-4.3,10.9c0,4.5,1.4,8.1,4.3,11
		C606.2,201.1,609.9,202.6,614.2,202.6z"/>
	<path class="st0" d="M326.3,231.1c-1.8,0-3.3-0.6-4.6-1.8c-1.2-1.2-1.8-2.7-1.8-4.6c0-1.8,0.6-3.4,1.8-4.6c1.2-1.3,2.7-1.9,4.6-1.9
		c1.8,0,3.2,0.6,4.5,1.9c1.2,1.3,1.8,2.8,1.8,4.6c0,1.8-0.6,3.3-1.8,4.6C329.5,230.5,328,231.1,326.3,231.1z M331.4,285.6h-10.2
		v-46.2h10.2V285.6z"/>
	<path class="st0" d="M387.8,238.1c6.5,0,11.9,2.4,16.1,7.1c4.2,4.6,6.3,10.4,6.3,17.3c0,6.8-2.1,12.6-6.3,17.2
		c-4.2,4.7-9.6,7.1-16.1,7.1c-7.1,0-12.6-2.5-16.5-7.5v25.1h-10.2v-65h10.2v6.3C375.2,240.6,380.7,238.1,387.8,238.1z M385.1,247.1
		c-3,0-5.6,0.8-8.1,2.3c-2.4,1.5-4.3,3.5-5.6,6v14.3c1.3,2.4,3.2,4.3,5.7,5.9c2.5,1.5,5.2,2.3,8,2.3c4.3,0,7.8-1.5,10.6-4.4
		c2.8-3,4.2-6.6,4.2-10.9c0-4.3-1.4-8-4.2-10.9C392.9,248.6,389.3,247.1,385.1,247.1z"/>
	<path class="st0" d="M441.9,286.5c-7.4,0-13.5-2.4-18.3-7.1c-4.8-4.7-7.2-10.5-7.2-17.3c0-6.8,2.4-12.5,7.2-17.2
		c4.8-4.7,10.9-7.1,18.3-7.1c7.3,0,13.3,2.4,18.2,7.1c4.8,4.7,7.2,10.4,7.2,17.2c0,6.8-2.4,12.6-7.2,17.3
		C455.2,284.1,449.2,286.5,441.9,286.5z M441.9,277.5c4.3,0,7.9-1.5,10.8-4.4c2.9-2.9,4.3-6.6,4.3-11c0-4.4-1.4-8-4.3-10.9
		c-2.9-2.9-6.6-4.4-10.8-4.4c-4.3,0-8,1.5-10.9,4.4c-2.9,2.9-4.3,6.5-4.3,10.9c0,4.5,1.4,8.1,4.3,11
		C433.9,276,437.6,277.5,441.9,277.5z"/>
	<path class="st0" d="M497.5,286.8c-8,0-14.2-2.7-18.6-8.2c-4.4-5.5-6.6-12.9-6.6-22.2c0-10.2,2.4-18.1,7.2-23.7
		c2.2-2.6,5.2-4.9,9-6.8c4-1.9,8-3.4,12-4.4c4.2-1.1,9.4-2.1,15.5-3.1v9.4c-10,1.9-16.4,3.3-19,4.2c-7,2.4-11.6,6.1-13.7,11.2
		c-0.9,2.1-1.5,4.7-1.7,7.8c1.9-2.8,4.6-5,7.9-6.7c3.3-1.6,6.9-2.4,10.9-2.4c6,0,10.9,1.9,15,5.8c4,3.9,5.9,9,5.9,15.2
		c0,7.1-2.3,12.8-6.9,17.2C509.9,284.6,504.3,286.8,497.5,286.8z M497.5,277.9c4,0,7.2-1.3,9.7-4c2.6-2.7,3.9-6.1,3.9-10.2
		c0-3.9-1.2-7-3.7-9.5c-2.5-2.4-5.6-3.6-9.5-3.6c-3.1,0-6.1,0.9-9,2.6c-2.9,1.8-5.1,4-6.6,6.7c0.3,5.6,1.7,10,4.3,13.2
		C489.2,276.3,492.9,277.9,497.5,277.9z"/>
	<path class="st0" d="M537.9,285.6h-9.5v-46.2h10.2v31.3l24.9-31.3h9.5v46.2h-10.2v-31.4L537.9,285.6z"/>
	<path class="st0" d="M592.7,285.6h-9.8v-46.2h10l15.8,19.2l15.9-19.2h10v46.2h-9.8v-32.4l-14.1,17h-4l-14-17V285.6z"/>
	<path class="st0" d="M666,286.8c-7.4,0-13.5-2.4-18.3-7.1c-4.8-4.7-7.2-10.5-7.2-17.3c0-6.8,2.4-12.5,7.2-17.2
		c4.8-4.7,10.9-7.1,18.3-7.1c7.3,0,13.3,2.4,18.2,7.1c4.8,4.7,7.2,10.4,7.2,17.2c0,6.8-2.4,12.6-7.2,17.3
		C679.4,284.4,673.3,286.8,666,286.8z M666,277.9c4.3,0,7.9-1.5,10.8-4.4c2.9-2.9,4.3-6.6,4.3-11c0-4.4-1.4-8-4.3-10.9
		c-2.9-2.9-6.6-4.4-10.8-4.4c-4.3,0-8,1.5-10.9,4.4c-2.9,2.9-4.3,6.5-4.3,10.9c0,4.5,1.4,8.1,4.3,11
		C658.1,276.4,661.7,277.9,666,277.9z"/>
</g>
</svg>
