<svg width="32" height="32" viewBox="0 0 32 32" fill="none" xmlns="http://www.w3.org/2000/svg"><path d="M16 32c-8.959 0-11.37-.455-13.458-2.543C.442 27.357 0 24.959 0 16S.454 4.641 2.542 2.541C4.63.454 7.04 0 16 0s11.37.454 13.458 2.542C31.558 4.642 32 7.04 32 16s-.441 11.358-2.542 13.458C27.371 31.545 24.96 32 16 32z" fill="url(#paint0_linear_451_4732)"/><path d="M18.33 19.776c-.648.445-1.395.643-2.241.643-1.095 0-1.942-.297-2.639-.94-.697-.644-1.145-1.534-1.294-2.672h5.725v-2.573h-5.676c.2-.99.648-1.83 1.345-2.424.697-.594 1.543-.891 2.539-.891.846 0 1.593.247 2.24.693a4.491 4.491 0 011.444 1.83l3.236-1.138c-.497-1.335-1.344-2.375-2.539-3.166C19.226 8.396 17.782 8 16.14 8c-2.29 0-4.133.742-5.527 2.127-1.394 1.386-2.09 3.266-2.09 5.542 0 2.325.696 4.205 2.09 5.59 1.394 1.386 3.236 2.079 5.527 2.079 1.643 0 3.087-.347 4.331-1.138 1.195-.742 2.042-1.781 2.54-3.167l-3.237-1.138c-.348.792-.846 1.435-1.444 1.88z" fill="#fff"/><defs><linearGradient id="paint0_linear_451_4732" x1="2.148" y1="28.999" x2="29.147" y2="1.831" gradientUnits="userSpaceOnUse"><stop stop-color="#017C67"/><stop offset=".5" stop-color="#01A270"/><stop offset="1" stop-color="#A0CA6E"/></linearGradient></defs></svg>